<svg width="144" height="151" viewBox="0 0 144 151" fill="none" xmlns="http://www.w3.org/2000/svg">
<path d="M142.794 97.2233L142.794 97.2199C142.794 95.8139 142.039 94.1847 140.817 92.3952C139.605 90.6191 137.991 88.768 136.379 86.9208L136.379 86.9204L136.36 86.8993C134.692 84.9847 132.97 83.0082 131.667 81.0762C130.365 79.1474 129.425 77.1854 129.425 75.308C129.425 73.4308 130.363 71.4689 131.664 69.5399C132.972 67.6006 134.702 65.6166 136.379 63.6952C137.992 61.8437 139.606 59.9901 140.819 58.2125C142.041 56.4213 142.796 54.7915 142.796 53.3855L142.796 53.3824C142.798 53.0057 142.741 52.6311 142.627 52.2724C142.125 50.7211 140.587 49.5832 138.335 48.6673C136.103 47.7593 133.317 47.1264 130.523 46.4915L130.514 46.4896L130.484 46.4826C128.081 45.937 125.6 45.3736 123.48 44.6148C121.365 43.8576 119.513 42.8743 118.466 41.4311C117.402 39.9646 116.951 37.8109 116.951 34.7792C116.951 32.8281 117.144 30.6601 117.328 28.5777C117.338 28.4677 117.347 28.3578 117.357 28.2483L117.386 27.9214C117.571 25.8293 117.759 23.7113 117.759 21.8181C117.759 18.0853 117.023 16.027 115.651 15.0263L115.651 15.0262C114.387 14.1028 112.521 14.092 110.201 14.6693C107.902 15.2414 105.314 16.3494 102.719 17.4615L102.719 17.4616L102.698 17.4706C100.392 18.4583 98.0124 19.4774 95.8084 20.1177C93.6107 20.7562 91.494 21.0478 89.7534 20.4814L89.7531 20.4813C88.0969 19.9413 86.6472 18.5506 85.3094 16.8116C83.9645 15.0634 82.6755 12.8848 81.371 10.6768L142.794 97.2233ZM142.794 97.2233C142.797 97.5996 142.739 97.9738 142.625 98.332C142.124 99.8828 140.585 101.021 138.333 101.937C136.099 102.846 133.311 103.48 130.514 104.116L130.468 104.126C128.072 104.671 125.597 105.233 123.481 105.991C121.365 106.748 119.511 107.731 118.464 109.174C117.4 110.641 116.949 112.795 116.949 115.826C116.949 117.774 117.141 119.936 117.325 122.016C117.335 122.13 117.345 122.244 117.355 122.357C117.364 122.46 117.373 122.563 117.382 122.666C117.568 124.764 117.755 126.876 117.755 128.775C117.755 132.507 117.015 134.566 115.647 135.567C114.382 136.49 112.517 136.501 110.197 135.923C107.898 135.351 105.31 134.243 102.715 133.131C100.41 132.141 98.0239 131.117 95.812 130.475C93.6131 129.836 91.4929 129.545 89.7495 130.111L89.7489 130.111M142.794 97.2233L89.7489 130.111M89.7489 130.111C88.0926 130.652 86.6428 132.044 85.3052 133.784C83.9606 135.532 82.6719 137.71 81.3677 139.914L81.3668 139.916L81.3668 139.916M89.7489 130.111L81.3668 139.916M81.3668 139.916C79.8891 142.414 78.4128 144.906 76.8389 146.778C75.2531 148.663 73.6678 149.796 71.9979 149.796C70.3279 149.796 68.7431 148.664 67.1577 146.779C65.5841 144.909 64.1078 142.417 62.6292 139.916C61.3245 137.708 60.0356 135.529 58.6906 133.781C57.3528 132.042 55.9031 130.651 54.2469 130.111L54.2466 130.111M81.3668 139.916L54.2466 130.111M54.2466 130.111C52.506 129.545 50.3893 129.837 48.1916 130.475C45.9876 131.115 43.608 132.134 41.3017 133.122L41.2807 133.131L41.2806 133.131M54.2466 130.111L41.2806 133.131M41.2806 133.131C38.686 134.243 36.0979 135.351 33.799 135.923C31.479 136.501 29.6131 136.49 28.3487 135.567L28.3486 135.567M41.2806 133.131L28.3486 135.567M28.3486 135.567C26.9774 134.566 26.2412 132.507 26.2412 128.775M28.3486 135.567L26.2412 128.775M7.24863 64.0134C4.03198 60.3217 0.708107 56.5055 0.708107 53.3749M7.24863 64.0134C10.6124 67.8676 14.0751 71.8399 14.0751 75.2848C14.0751 78.7297 10.6082 82.7146 7.24442 86.5688M7.24863 64.0134L7.6256 63.685C7.62551 63.6849 7.62542 63.6848 7.62533 63.6846L7.24863 64.0134ZM0.708107 53.3749L0.7039 97.2073C0.7039 94.0767 4.02777 90.2605 7.24442 86.5688M0.708107 53.3749C0.70636 52.9489 0.771633 52.5253 0.901523 52.1198L0.708107 53.3749ZM7.24442 86.5688L7.62112 86.8976C7.62116 86.8975 7.6212 86.8975 7.62124 86.8974M7.24442 86.5688L7.62139 86.8973C7.62134 86.8973 7.62129 86.8974 7.62124 86.8974M7.62124 86.8974C6.00797 88.749 4.39404 90.6027 3.18091 92.3803C1.95857 94.1715 1.2039 95.8012 1.2039 97.2073L1.2039 97.2103C1.2016 97.5869 1.2588 97.9615 1.37334 98.32C1.87433 99.8715 3.41324 101.009 5.66474 101.925C7.89587 102.833 10.6803 103.466 13.4732 104.101L13.4836 104.103L13.4837 104.103L13.5111 104.109C15.9158 104.655 18.3983 105.219 20.5195 105.978C22.635 106.735 24.4867 107.718 25.5341 109.162L7.62124 86.8974ZM26.2412 128.775C26.2412 126.881 26.4288 124.763 26.614 122.671M26.2412 128.775L26.614 122.671M26.614 122.671C26.6237 122.562 26.6333 122.453 26.6429 122.344M26.614 122.671L26.6429 122.344M26.6429 122.344C26.6525 122.236 26.6621 122.128 26.6717 122.02M26.6429 122.344L26.6717 122.02M26.6717 122.02C26.8562 119.936 27.0485 117.764 27.0485 115.814M26.6717 122.02L27.0485 115.814M27.0485 115.814C27.0485 112.782 26.5984 110.628 25.5341 109.162L27.0485 115.814ZM41.2844 17.4614C43.5902 18.452 45.976 19.4754 48.188 20.1177C50.387 20.7563 52.5071 21.0477 54.2505 20.4815L54.2511 20.4814C55.9075 19.9412 57.3572 18.5488 58.6949 16.8092C60.0394 15.0606 61.3281 12.8826 62.6323 10.6784L62.6332 10.6769L62.2029 10.4223L62.6332 10.6768C64.1109 8.17846 65.5872 5.68632 67.1611 3.81498C68.7469 1.92958 70.3322 0.796384 72.0021 0.796384C73.6721 0.796384 75.2569 1.92865 76.8423 3.81343C78.4159 5.68417 79.8922 8.17622 81.3709 10.6766L41.2844 17.4614Z" fill="#E9FFE8" stroke="#383838"/>
</svg>
