<svg width="100" height="95" fill="none" xmlns="http://www.w3.org/2000/svg"><path d="M35.285 95c-.251 0-.5-.037-.74-.113-2.317-.737-3.025-4.805-3.701-8.725-.604-3.457-1.234-7.03-2.978-8.299-.755-.548-1.9-.813-3.5-.813-1.602 0-3.56.273-5.428.536-1.868.263-3.79.535-5.41.535-2.049 0-3.312-.425-3.978-1.337-1.389-1.9.395-5.539 2.12-9.058 1.566-3.195 3.187-6.51 2.499-8.626-.654-2.003-3.701-3.603-6.908-5.294C3.69 51.926 0 49.985 0 47.5s3.7-4.424 7.26-6.306c3.208-1.691 6.255-3.29 6.909-5.294.688-2.116-.933-5.426-2.5-8.626-1.726-3.52-3.508-7.159-2.119-9.059.666-.911 1.93-1.336 3.977-1.336 1.621 0 3.548.272 5.41.535 1.863.263 3.8.536 5.428.536 1.629 0 2.746-.265 3.501-.813 1.75-1.268 2.374-4.842 2.978-8.3.683-3.92 1.392-7.974 3.7-8.724.24-.075.49-.114.74-.113 2.07 0 4.644 2.48 7.133 4.876 2.6 2.507 5.292 5.1 7.582 5.1s4.978-2.593 7.581-5.1C60.07 2.48 62.643 0 64.713 0c.25 0 .5.038.74.113 2.316.75 3.025 4.805 3.7 8.724.605 3.458 1.234 7.032 2.978 8.3.755.548 1.9.813 3.501.813s3.56-.273 5.428-.536c1.867-.263 3.792-.535 5.413-.535 2.047 0 3.31.425 3.977 1.336 1.389 1.9-.395 5.54-2.12 9.06-1.566 3.194-3.187 6.51-2.499 8.625.654 2.003 3.701 3.603 6.908 5.294C96.31 43.074 100 45.015 100 47.5s-3.7 4.424-7.26 6.306c-3.208 1.691-6.255 3.29-6.909 5.294-.688 2.116.933 5.426 2.5 8.626 1.727 3.52 3.508 7.159 2.119 9.058-.666.912-1.93 1.337-3.977 1.337-1.621 0-3.548-.272-5.41-.535-1.863-.263-3.8-.536-5.428-.536-1.629 0-2.746.265-3.501.813-1.75 1.268-2.374 4.842-2.978 8.3-.683 3.932-1.392 7.974-3.7 8.724-.24.075-.49.114-.74.113-2.07 0-4.644-2.48-7.133-4.876-2.6-2.507-5.292-5.1-7.582-5.1s-4.98 2.593-7.581 5.1C39.93 92.52 37.357 95 35.287 95h-.002Z" fill="#E9FFE8"/><path fill-rule="evenodd" clip-rule="evenodd" d="M35.282 94h.005c.681 0 1.612-.432 2.805-1.336 1.157-.877 2.378-2.051 3.634-3.26l.02-.02c1.283-1.236 2.645-2.55 3.982-3.55 1.314-.985 2.785-1.81 4.273-1.81 1.489 0 2.959.825 4.274 1.81 1.336 1 2.698 2.314 3.98 3.55l.021.02c1.257 1.209 2.477 2.383 3.634 3.26 1.194.904 2.124 1.336 2.805 1.336h.002c.147 0 .293-.022.434-.066.665-.218 1.282-.985 1.82-2.542.519-1.505.854-3.412 1.2-5.4l.007-.042c.297-1.701.613-3.507 1.08-5.049.46-1.514 1.13-3.007 2.289-3.847 1.009-.733 2.382-1.004 4.088-1.004 1.703 0 3.701.282 5.535.54l.032.005c1.884.266 3.735.526 5.27.526 1.977 0 2.802-.422 3.17-.926.388-.53.44-1.481-.04-3.039-.459-1.496-1.296-3.21-2.17-4.99l-.017-.035c-.77-1.576-1.59-3.248-2.125-4.798-.526-1.525-.862-3.154-.41-4.543.436-1.333 1.603-2.393 2.878-3.276 1.285-.89 2.88-1.73 4.444-2.555l.096-.05c1.793-.95 3.519-1.861 4.805-2.83C98.444 49.073 99 48.23 99 47.5c0-.73-.556-1.574-1.893-2.581-1.291-.972-3.027-1.889-4.834-2.84l-.07-.038c-1.566-.825-3.16-1.665-4.445-2.555-1.275-.883-2.442-1.943-2.877-3.275v-.001c-.452-1.39-.117-3.019.409-4.544.538-1.56 1.363-3.242 2.138-4.823l.005-.009c.872-1.78 1.709-3.494 2.169-4.99.479-1.558.428-2.508.04-3.038-.368-.504-1.193-.927-3.17-.927-1.535 0-3.384.26-5.273.526-1.847.26-3.881.545-5.567.545-1.676 0-3.078-.27-4.088-1.004-1.155-.84-1.826-2.333-2.286-3.847-.471-1.551-.789-3.37-1.088-5.08l-.002-.01v-.002c-.342-1.982-.675-3.889-1.195-5.394-.538-1.56-1.156-2.33-1.825-2.547A1.441 1.441 0 0 0 64.715 1h-.002c-.681 0-1.612.432-2.805 1.336-1.157.877-2.378 2.051-3.634 3.26l-.037.036c-1.279 1.231-2.635 2.538-3.965 3.534-1.315.984-2.785 1.81-4.273 1.81-1.489 0-2.959-.826-4.274-1.81-1.336-1-2.698-2.314-3.98-3.55l-.021-.02c-1.256-1.209-2.477-2.383-3.634-3.26C36.896 1.432 35.966 1 35.285 1h-.002a1.44 1.44 0 0 0-.433.065c-.665.218-1.282.988-1.82 2.548-.52 1.506-.855 3.413-1.2 5.396l-.008.041c-.297 1.701-.613 3.507-1.08 5.048-.46 1.515-1.13 3.008-2.288 3.848-1.01.732-2.383 1.004-4.089 1.004-1.703 0-3.701-.282-5.535-.54l-.032-.005c-1.884-.266-3.735-.526-5.27-.526-1.977 0-2.802.422-3.17.926-.388.53-.44 1.481.04 3.039.459 1.496 1.296 3.21 2.17 4.99l.017.035c.77 1.576 1.59 3.248 2.125 4.798.526 1.525.861 3.154.41 4.543-.436 1.333-1.603 2.393-2.878 3.276-1.285.89-2.88 1.73-4.444 2.555l-.07.037-.026.014c-1.794.948-3.519 1.86-4.806 2.828C1.558 45.928 1 46.771 1 47.5c0 .73.557 1.574 1.893 2.581 1.292.972 3.027 1.889 4.834 2.84l.071.038c1.565.825 3.159 1.665 4.444 2.555 1.275.883 2.442 1.943 2.877 3.275v.001c.453 1.39.117 3.019-.409 4.544-.538 1.56-1.363 3.242-2.138 4.822l-.004.01c-.873 1.78-1.71 3.494-2.17 4.99-.479 1.558-.428 2.508-.04 3.038.368.504 1.193.927 3.17.927 1.535 0 3.38-.26 5.268-.525h.002c1.848-.26 3.882-.546 5.567-.546 1.677 0 3.079.27 4.089 1.004 1.155.84 1.825 2.333 2.285 3.847.472 1.551.79 3.37 1.088 5.08l.002.012c.342 1.982.676 3.892 1.196 5.4.538 1.563 1.157 2.329 1.822 2.54.14.045.288.067.435.067Zm-.737.887c-2.317-.737-3.025-4.805-3.701-8.725-.604-3.457-1.234-7.03-2.978-8.299-.755-.548-1.9-.813-3.5-.813-1.602 0-3.56.273-5.428.536l-.053.007c-1.85.26-3.752.528-5.358.528-2.047 0-3.31-.425-3.977-1.337-1.389-1.9.395-5.538 2.12-9.057v-.001c1.566-3.195 3.187-6.51 2.499-8.626-.652-1.995-3.678-3.59-6.871-5.274L7.25 53.8C3.684 51.923 0 49.982 0 47.5c0-2.467 3.649-4.396 7.185-6.266l.076-.04.037-.02c3.193-1.683 6.22-3.279 6.87-5.274.689-2.116-.932-5.426-2.498-8.625-1.727-3.52-3.509-7.16-2.12-9.06.666-.911 1.93-1.336 3.977-1.336 1.616 0 3.535.27 5.392.533l.019.002c1.862.263 3.799.536 5.427.536 1.629 0 2.746-.265 3.501-.813 1.749-1.268 2.373-4.84 2.977-8.297l.001-.003c.683-3.92 1.392-7.974 3.7-8.724.24-.075.49-.114.74-.113 2.068 0 4.637 2.473 7.123 4.866l.01.01c2.6 2.507 5.292 5.1 7.582 5.1 2.286 0 4.971-2.587 7.571-5.09l.02-.02C60.078 2.473 62.647 0 64.714 0c.25 0 .5.038.74.113 2.316.75 3.025 4.805 3.7 8.724.605 3.458 1.234 7.032 2.978 8.3.755.548 1.9.813 3.501.813s3.56-.273 5.428-.536l.044-.006c1.854-.26 3.76-.53 5.369-.53 2.047 0 3.31.426 3.977 1.337 1.389 1.9-.395 5.54-2.119 9.058v.001c-1.567 3.195-3.188 6.51-2.5 8.626.652 1.995 3.678 3.59 6.871 5.274l.047.025C96.316 43.077 100 45.018 100 47.5c0 2.467-3.648 4.396-7.185 6.266l-.076.04-.037.02c-3.193 1.683-6.22 3.279-6.87 5.274-.689 2.116.932 5.426 2.498 8.625 1.727 3.52 3.509 7.16 2.12 9.06-.666.911-1.93 1.336-3.977 1.336-1.616 0-3.535-.27-5.392-.533l-.019-.002c-1.862-.263-3.799-.536-5.427-.536-1.629 0-2.746.265-3.501.813-1.749 1.268-2.373 4.84-2.978 8.296v.003c-.683 3.933-1.392 7.975-3.7 8.725-.24.075-.49.114-.74.113-2.068 0-4.637-2.473-7.123-4.866l-.01-.01c-2.6-2.507-5.292-5.1-7.582-5.1s-4.98 2.593-7.581 5.1l-.01.01C39.922 92.527 37.353 95 35.286 95h-.002c-.251 0-.5-.037-.74-.113Z" fill="#383838"/></svg>