<svg width="22" height="22" fill="none" xmlns="http://www.w3.org/2000/svg"><g clip-path="url(#a)" fill="#fff"><path d="m1.553 5.843 8.976 6.098a.833.833 0 0 0 .94 0l8.976-6.098c.449-.304.233-1.007-.309-1.007H1.862c-.542 0-.758.7-.309 1.007Zm18.808.962-5.464 3.713 5.391 5.208c.35.337.934.09.934-.397V7.262a.552.552 0 0 0-.861-.457ZM1.71 15.725l5.39-5.207-5.463-3.713a.55.55 0 0 0-.86.457v8.067a.55.55 0 0 0 .933.397Z"/><path d="M19.303 17.164a.551.551 0 0 0 .384-.947l-5.442-5.257-2.41 1.637a1.485 1.485 0 0 1-1.67 0L7.753 10.96 2.31 16.217a.551.551 0 0 0 .383.947h16.61Z"/></g><defs><clipPath id="a"><path fill="#fff" transform="translate(.778 .778)" d="M0 0h20.444v20.444H0z"/></clipPath></defs></svg>