<svg width="117" height="30" fill="none" xmlns="http://www.w3.org/2000/svg"><g clip-path="url(#a)" fill="#fff"><path d="M46.207 25.618c-.136.07-.182.115-.237.118-2.23.175-4.382.017-6.264-1.392-1.043-.78-2.026-1.63-2.781-2.684-1.595-2.225-3.127-4.494-4.681-6.748a64.984 64.984 0 0 1-1.09-1.632c-.345-.536-.295-.631.328-.672 1.37-.09 2.68-.375 3.9-1.019 2.38-1.254 3.253-3.94 2.022-6.345-.613-1.189-1.679-1.86-2.954-2.085-1.072-.188-2.177-.204-3.269-.255-.621-.03-1.247.036-1.87.03-.383 0-.492.157-.487.524.031 2.267.052 4.534.061 6.801.015 4.109.034 8.217.012 12.325 0 .706.202 1.181.798 1.552.517.319.988.71 1.475 1.074.13.094.236.22.306.365-2.911.113-5.804.146-8.697.091l-.04-.17c.122-.1.24-.203.365-.297.6-.442 1.198-.887 1.804-1.32a1.08 1.08 0 0 0 .484-.965 6393.4 6393.4 0 0 1-.033-18.989c0-.456-.156-.772-.528-1.036-.596-.42-1.165-.88-1.743-1.327-.113-.091-.213-.19-.408-.365.165-.031.331-.053.498-.065 3.363.012 6.725.007 10.088.05 1.757.022 3.496.241 5.124.965 1.628.724 2.861 1.799 3.262 3.614.536 2.429-.45 4.853-2.502 6.27a10.683 10.683 0 0 1-2.847 1.42c-.197.062-.385.152-.609.244.046.126.103.248.169.365 1.596 2.282 3.131 4.605 4.814 6.82a16.41 16.41 0 0 0 5.052 4.42c.15.078.283.186.478.318ZM113.776 24.532c0 .264-.05.527-.085.879-.414-.208-.739-.358-1.051-.533-.539-.302-1.065-.327-1.658-.109a16.93 16.93 0 0 1-7.181.988c-2.598-.197-5.038-.933-7.133-2.524-2.402-1.826-3.907-4.237-4.355-7.245-.393-2.64-.35-5.253.737-7.76 1.016-2.34 2.562-4.226 4.763-5.553 2.905-1.751 6.07-2.27 9.394-1.924 1.054.108 2.1.357 3.127.62a2.118 2.118 0 0 0 1.699-.225c.974-.564.979-.548.984.561.007 1.903.021 3.805.029 5.708 0 .174-.015.35-.024.525-1.618-1.993-2.824-3.47-3.327-4.151a2.864 2.864 0 0 0-1.056-.923 2.548 2.548 0 0 0-.685-.22c-2.66-.46-5.246-.323-7.662 1.037-2.008 1.133-3.221 2.897-3.834 5.069-.921 3.256-.695 6.47.73 9.534 1.267 2.727 3.335 4.614 6.359 5.192 1.967.375 3.948.154 5.874-.38 1.336-.372 1.204-.116 1.199-1.617-.004-1.294-.033-2.588-.014-3.881.007-.457-.146-.719-.564-.918-1.662-.793-3.309-1.616-4.959-2.43-.114-.056-.218-.132-.325-.2l.02-.113c.153-.024.307-.04.462-.047 2.647 0 5.295.006 7.942-.01.396 0 .56.14.569.514 0 .197.02.395.02.593l.005 9.543ZM19.82 25.086c0 .56-.05.609-.592.61-5.628.017-11.258.03-16.89.042-.389 0-.779-.057-1.168-.087l-.042-.116c.104-.091.203-.19.314-.274.602-.44 1.2-.887 1.816-1.304.365-.247.516-.556.507-.995-.021-.988-.011-1.978-.013-2.968-.009-5.295-.015-10.59-.017-15.885 0-.548-.17-.92-.615-1.23-.573-.4-1.112-.85-1.663-1.279-.116-.09-.223-.192-.424-.365.274-.02.43-.042.587-.043 5.326-.01 10.651-.02 15.977-.028 1.146 0 1.15.005 1.163 1.16.016 1.355.028 2.71.035 4.064 0 .268-.044.538-.067.807l-.1.042c-.103-.116-.212-.226-.305-.35-.806-1.069-1.627-2.128-2.408-3.215-.372-.52-.814-.741-1.46-.73-2.222.033-4.443.021-6.665.029-.606 0-.62.026-.617.608.014 2.648.026 5.295.035 7.942 0 .656 0 .658.662.661 1.628.008 3.256 0 4.884.025.506.007.872-.172 1.161-.58.456-.644.933-1.278 1.403-1.917.106-.142.222-.278.414-.517.06.255.126.4.127.548.01 2.222.014 4.444.014 6.665-.01.162-.029.324-.06.484l-.122.033-.534-.72c-.406-.553-.814-1.102-1.215-1.657a1.302 1.302 0 0 0-1.122-.588c-1.719.01-3.438.02-5.157.018-.351 0-.478.134-.475.489.019 2.982.03 5.964.03 8.946 0 .366.111.514.495.513 2.724-.019 5.447-.026 8.17-.023a1.004 1.004 0 0 0 .891-.442c.913-1.257 1.834-2.503 2.754-3.752.061-.065.127-.126.196-.183.044.242.074.485.091.73.009 1.608.01 3.219.005 4.832ZM59.671 25.176c-1.057.427-2.157.608-3.294.65-2.044.08-4.042-.112-5.961-.866-.295-.116-.554-.07-.828.07-.447.228-.903.438-1.362.639-.264.115-.405.008-.405-.284-.004-2.252-.008-4.504-.01-6.756a1.04 1.04 0 0 1 .068-.21c.134.145.246.25.338.37.934 1.24 1.876 2.474 2.792 3.726a3.112 3.112 0 0 0 1.817 1.207c1.493.388 2.983.577 4.51.21 1.77-.427 2.794-1.596 3.012-3.4.214-1.77-.413-3.142-1.833-4.199-1.136-.847-2.425-1.386-3.704-1.954-.913-.409-1.838-.81-2.739-1.25-1.205-.587-2.254-1.384-3.074-2.458-1.643-2.153-1.707-6.695 2.009-8.712C52.929.916 54.964.595 57.097.831c.977.108 1.945.338 2.901.581.564.143 1.067.155 1.579-.143.294-.172.614-.299 1.025-.495v7.367l-.091.05a4.183 4.183 0 0 1-.346-.365c-1.086-1.447-2.169-2.899-3.248-4.353-.285-.386-.639-.66-1.1-.759-1.333-.286-2.657-.309-3.957.17-2.039.753-3.185 3.196-2.32 5.054.21.448.579.86.963 1.187.843.707 1.832 1.187 2.837 1.636 1.594.714 3.203 1.408 4.747 2.217 1.49.778 2.727 1.917 3.31 3.52 1.34 3.642.075 7.141-3.726 8.678ZM90.454 25.23c-.124-.087-.249-.174-.378-.251-1.226-.741-2.206-1.66-2.702-3.08-.45-1.29-1.065-2.521-1.607-3.778L78.177.52c-.078-.183-.19-.348-.286-.521l-.144.008c-.173.382-.355.759-.518 1.144-2.79 6.55-5.579 13.1-8.366 19.652-.584 1.37-1.168 2.739-1.728 4.124-.194.474-.105.581.393.582 1.948.005 3.895.005 5.843 0 .153-.01.306-.03.456-.058l.014-.114c-.154-.085-.306-.178-.464-.256-.966-.482-1.93-.97-2.904-1.436-.33-.159-.418-.355-.255-.687.134-.273.238-.56.355-.84.73-1.755 1.47-3.508 2.197-5.265.145-.35.335-.598.76-.596 2.343.006 4.686.006 7.03 0a.618.618 0 0 1 .632.422c.87 2.126 1.747 4.25 2.628 6.37.114.275.056.462-.182.628-.486.34-.965.69-1.445 1.038-.24.174-.476.355-.73.548.39.268 8.44.28 9.026.048-.017-.028-.017-.068-.035-.082ZM73.789 14.457c1.044-2.578 2.1-5.08 3.146-7.588l.155-.013 3.163 7.601h-6.464ZM116.126 27.81H0V30h116.126v-2.19Z"/></g><defs><clipPath id="a"><path fill="#fff" d="M0 0h116.126v30H0z"/></clipPath></defs></svg>