<svg width="117" height="30" viewBox="0 0 117 30" fill="none" xmlns="http://www.w3.org/2000/svg">
<g clip-path="url(#clip0_102_232)">
<path d="M46.207 25.6177C46.0709 25.688 46.0244 25.7327 45.9696 25.7364C43.7402 25.9108 41.5875 25.7528 39.7059 24.3442C38.6625 23.5645 37.6792 22.7136 36.9242 21.6601C35.3293 19.4353 33.7974 17.1657 32.2436 14.9117C31.873 14.3731 31.5078 13.8299 31.1536 13.2803C30.8085 12.7444 30.8587 12.6485 31.4813 12.6084C32.8507 12.5171 34.1608 12.2331 35.3814 11.5895C37.7614 10.3351 38.6342 7.64837 37.4035 5.2437C36.7909 4.05506 35.7246 3.38314 34.4493 3.15947C33.3775 2.9714 32.2728 2.95497 31.181 2.90385C30.5592 2.87372 29.9339 2.94036 29.3103 2.93489C28.9278 2.93489 28.8183 3.091 28.8237 3.458C28.8548 5.72512 28.8752 7.99225 28.8849 10.2594C28.8995 14.3676 28.9187 18.4758 28.8968 22.584C28.8968 23.2897 29.0985 23.7654 29.6947 24.136C30.2114 24.4546 30.6825 24.8463 31.17 25.2096C31.3004 25.3044 31.4054 25.4298 31.4758 25.5748C28.5645 25.688 25.6714 25.7209 22.7783 25.6661C22.7646 25.6095 22.7518 25.552 22.7381 25.4954C22.8605 25.3968 22.9791 25.2927 23.1033 25.1987C23.7031 24.7568 24.302 24.3122 24.9073 23.8786C25.0656 23.7745 25.1937 23.6307 25.2788 23.4615C25.3639 23.2922 25.4029 23.1036 25.392 22.9145C25.3713 16.5848 25.3601 10.2551 25.3582 3.92542C25.3582 3.46895 25.203 3.15308 24.8306 2.88924C24.2344 2.46837 23.6657 2.00825 23.0878 1.56183C22.9746 1.47053 22.8741 1.37194 22.6797 1.19665C22.8445 1.16585 23.0109 1.14421 23.1782 1.13184C26.5405 1.1437 29.9028 1.13914 33.2652 1.18205C35.0226 1.20396 36.7617 1.42306 38.3895 2.14702C40.0173 2.87098 41.2506 3.9455 41.6514 5.76133C42.1873 8.18975 41.2023 10.6136 39.1491 12.0305C38.2764 12.6431 37.3169 13.1216 36.3025 13.4501C36.1053 13.5131 35.9173 13.6035 35.6936 13.6948C35.7399 13.8209 35.7964 13.943 35.8625 14.0599C37.4583 16.3423 38.9939 18.6648 40.6764 20.8796C42.0379 22.6851 43.758 24.1898 45.7286 25.2991C45.8783 25.3785 46.0116 25.4862 46.207 25.6177Z" fill="#383838"/>
<path d="M113.776 24.5316C113.776 24.7955 113.727 25.0593 113.691 25.4108C113.278 25.2026 112.953 25.0529 112.64 24.8785C112.102 24.5764 111.576 24.5508 110.982 24.769C108.688 25.6128 106.238 25.9498 103.801 25.7568C101.203 25.5596 98.7637 24.8238 96.6685 23.2325C94.2666 21.4067 92.7612 18.9956 92.3138 15.9884C91.9204 13.3482 91.9633 10.7353 93.0506 8.22841C94.0667 5.88856 95.6123 4.00243 97.8134 2.67502C100.718 0.924012 103.883 0.405462 107.207 0.750552C108.261 0.859191 109.307 1.10751 110.334 1.37044C110.618 1.45332 110.915 1.47616 111.207 1.43749C111.5 1.39881 111.781 1.29948 112.033 1.14586C113.007 0.58166 113.013 0.598093 113.017 1.70731C113.025 3.60987 113.038 5.51243 113.047 7.41499C113.047 7.58936 113.031 7.76464 113.023 7.93993C111.404 5.94699 110.198 4.47077 109.695 3.78881C109.425 3.39841 109.063 3.08123 108.64 2.86583C108.423 2.76082 108.192 2.68706 107.954 2.64672C105.295 2.18569 102.709 2.32263 100.293 3.68291C98.2844 4.81586 97.0711 6.57965 96.4586 8.75153C95.5374 12.008 95.7629 15.2215 97.1889 18.2862C98.4551 21.0132 100.524 22.9002 103.548 23.4781C105.515 23.8533 107.495 23.6324 109.421 23.0974C110.758 22.7258 110.626 22.9824 110.621 21.4806C110.616 20.187 110.587 18.8933 110.606 17.5997C110.614 17.1432 110.46 16.8812 110.042 16.6822C108.381 15.8889 106.734 15.0663 105.083 14.252C104.97 14.1963 104.866 14.1196 104.758 14.0529C104.764 14.0146 104.772 13.9772 104.778 13.9388C104.931 13.9152 105.085 13.8997 105.24 13.8923C107.888 13.8923 110.535 13.8977 113.183 13.8813C113.579 13.8813 113.742 14.0228 113.751 14.3962C113.751 14.5934 113.771 14.7915 113.771 14.9887C113.773 18.1694 113.775 21.3504 113.776 24.5316Z" fill="#383838"/>
<path d="M19.8196 25.0857C19.8196 25.6463 19.7694 25.6947 19.228 25.6965C13.5995 25.7129 7.96969 25.7266 2.3387 25.7376C1.94888 25.7376 1.55905 25.681 1.17014 25.6508C1.15554 25.6116 1.14184 25.5732 1.12815 25.5349C1.23222 25.4436 1.33082 25.345 1.4422 25.261C2.04382 24.8219 2.64088 24.3736 3.25803 23.9573C3.6232 23.7099 3.77384 23.4005 3.76471 22.9622C3.74371 21.9735 3.75375 20.9839 3.75192 19.9943C3.7428 14.6993 3.73701 9.40422 3.73458 4.10919C3.73458 3.56143 3.56386 3.18896 3.12017 2.87856C2.54685 2.47869 2.00822 2.02861 1.4568 1.60045C1.34086 1.50915 1.23405 1.40782 1.0332 1.23527C1.30708 1.21427 1.46228 1.19328 1.62022 1.19236C6.94568 1.18141 12.2711 1.17197 17.5966 1.16406C18.7423 1.16406 18.746 1.16863 18.7597 2.3244C18.7761 3.6792 18.7877 5.03369 18.7944 6.38788C18.7944 6.65628 18.7506 6.9256 18.7277 7.19492L18.6273 7.23691C18.5251 7.12097 18.4155 7.0105 18.3224 6.88726C17.5163 5.81821 16.6955 4.7592 15.915 3.6719C15.5425 3.15244 15.1006 2.93059 14.4543 2.94155C12.2331 2.97533 10.0119 2.96346 7.78985 2.97076C7.18366 2.97076 7.16905 2.99724 7.1727 3.57878C7.1867 6.2269 7.19826 8.87442 7.20739 11.5213C7.20739 12.1768 7.20739 12.1786 7.87019 12.1823C9.49795 12.1896 11.1257 12.1823 12.7535 12.2069C13.2602 12.2142 13.6253 12.0353 13.9147 11.6272C14.3712 10.9827 14.8478 10.3491 15.3179 9.71006C15.4238 9.56764 15.5398 9.43161 15.7315 9.19334C15.7926 9.44804 15.8575 9.5932 15.8584 9.7411C15.8681 11.9632 15.873 14.1847 15.873 16.4055C15.8636 16.5682 15.8437 16.7301 15.8136 16.8903L15.6904 16.9232C15.5124 16.6831 15.3334 16.443 15.1563 16.2029C14.751 15.6505 14.3429 15.1009 13.9421 14.5459C13.8206 14.3605 13.6538 14.2091 13.4575 14.1063C13.2611 14.0034 13.0417 13.9523 12.8201 13.958C11.1011 13.9671 9.38201 13.9771 7.66295 13.9762C7.31147 13.9762 7.18457 14.1104 7.1873 14.4646C7.20678 17.4469 7.21683 20.4291 7.21743 23.4114C7.21743 23.7766 7.32881 23.9254 7.71316 23.9236C10.4368 23.9053 13.16 23.8977 15.883 23.9007C16.0571 23.9108 16.2308 23.8753 16.3871 23.7979C16.5433 23.7204 16.6767 23.6036 16.7741 23.4589C17.687 22.2018 18.6072 20.9556 19.5275 19.7067C19.5889 19.6417 19.6545 19.5807 19.7237 19.5241C19.7677 19.7657 19.7982 20.0095 19.815 20.2545C19.8236 21.8625 19.8251 23.4729 19.8196 25.0857Z" fill="#383838"/>
<path d="M59.6714 25.1759C58.6142 25.6032 57.5141 25.7839 56.3775 25.8268C54.3335 25.9063 52.3351 25.7136 50.4161 24.9596C50.1212 24.8436 49.8619 24.8893 49.588 25.0298C49.1416 25.2581 48.6851 25.4681 48.2259 25.6689C47.9621 25.7839 47.8206 25.6771 47.8206 25.385C47.8169 23.1331 47.8136 20.8812 47.8105 18.6293C47.8258 18.5567 47.8487 18.486 47.879 18.4184C48.0132 18.5644 48.1255 18.6694 48.2168 18.7899C49.1507 20.0288 50.0929 21.2631 51.0095 22.5147C51.4496 23.123 52.0949 23.5516 52.8262 23.7216C54.3189 24.1096 55.8088 24.2986 57.3352 23.9316C59.1054 23.5052 60.1297 22.3358 60.3479 20.5327C60.5615 18.7616 59.9352 17.3895 58.5147 16.3332C57.379 15.486 56.09 14.9474 54.8109 14.3786C53.898 13.9705 52.9732 13.5698 52.0721 13.1288C50.8671 12.5418 49.8181 11.7448 48.9983 10.6712C47.355 8.51848 47.2911 3.97571 51.0067 1.95904C52.9294 0.91555 54.9643 0.595108 57.0969 0.830646C58.0738 0.939285 59.0424 1.16934 59.9982 1.41219C60.5624 1.5546 61.0655 1.56739 61.5767 1.26886C61.8707 1.09722 62.1911 0.970326 62.6019 0.774044V8.14053L62.5106 8.19165C62.3881 8.07695 62.2726 7.95501 62.1646 7.82648C61.0789 6.37856 59.9964 4.9273 58.9173 3.47268C58.6325 3.08742 58.2783 2.81354 57.8163 2.71403C56.4844 2.42828 55.1597 2.40546 53.8597 2.88475C51.8211 3.63701 50.6753 6.08003 51.5408 7.93786C51.7499 8.38611 52.1187 8.79784 52.503 9.12467C53.3466 9.8322 54.3353 10.3115 55.3395 10.7607C56.9344 11.4746 58.543 12.1693 60.0868 12.9782C61.5767 13.756 62.8137 14.8953 63.398 16.4985C64.7373 20.1402 63.472 23.6394 59.6714 25.1759Z" fill="#383838"/>
<path d="M90.4539 25.2299C90.3298 25.1432 90.2056 25.0564 90.076 24.9788C88.8499 24.2375 87.8703 23.3182 87.3746 21.8986C86.9236 20.6095 86.3092 19.378 85.7669 18.1209C83.2369 12.2537 80.7068 6.3869 78.1768 0.520372C78.0992 0.337785 77.9869 0.173458 77.891 0L77.7468 0.00821609C77.5742 0.389823 77.3925 0.766866 77.2291 1.15213C74.4392 7.70153 71.6505 14.2522 68.863 20.804C68.2796 22.1734 67.6953 23.5428 67.1348 24.9277C66.9413 25.4025 67.0307 25.5093 67.5283 25.5102C69.4759 25.515 71.4235 25.515 73.3711 25.5102C73.5243 25.5004 73.6768 25.4808 73.8275 25.4517L73.8412 25.3385C73.6869 25.2527 73.5354 25.1605 73.3775 25.082C72.4116 24.6 71.4475 24.1125 70.4734 23.646C70.1429 23.4871 70.0553 23.2908 70.2178 22.9594C70.352 22.6856 70.4561 22.3998 70.5729 22.1186C71.3033 20.364 72.0427 18.6111 72.7704 16.8537C72.9155 16.5031 73.1054 16.2557 73.5308 16.2576C75.8734 16.2643 78.2166 16.2643 80.5604 16.2576C80.6978 16.2476 80.8345 16.2837 80.949 16.3603C81.0634 16.4369 81.149 16.5495 81.1922 16.6803C82.0631 18.8056 82.9393 20.9291 83.8205 23.0507C83.9337 23.3246 83.8762 23.5118 83.638 23.6779C83.1523 24.0184 82.673 24.3672 82.1928 24.7159C81.9527 24.8903 81.7171 25.0711 81.4624 25.2637C81.8532 25.5321 89.9034 25.544 90.4895 25.3121C90.4722 25.2838 90.4722 25.2445 90.4539 25.2299ZM73.7892 14.4573C74.8336 11.8791 75.8889 9.37768 76.9352 6.86893L77.0904 6.85615C78.1339 9.36307 79.1764 11.8709 80.2528 14.4573H73.7892Z" fill="#383838"/>
<path d="M116.126 27.8091H0V30.0001H116.126V27.8091Z" fill="#383838"/>
</g>
<defs>
<clipPath id="clip0_102_232">
<rect width="116.126" height="30" fill="white"/>
</clipPath>
</defs>
</svg>
