<svg width="130" height="130" fill="none" xmlns="http://www.w3.org/2000/svg"><path d="M129.498 84.004V84c0-1.189-.674-2.583-1.788-4.134-1.103-1.535-2.571-3.137-4.041-4.738h-.001l-.018-.02c-1.519-1.659-3.091-3.374-4.282-5.052-1.188-1.672-2.058-3.39-2.058-5.046 0-1.655.869-3.373 2.055-5.046 1.196-1.685 2.775-3.407 4.303-5.071 1.472-1.606 2.941-3.21 4.044-4.746 1.114-1.552 1.788-2.947 1.788-4.136v-.004a2.883 2.883 0 0 0-.15-.933c-.445-1.311-1.824-2.292-3.882-3.088-2.033-.786-4.571-1.334-7.12-1.884l-.006-.002-.029-.006c-2.189-.473-4.452-.961-6.386-1.62-1.927-.655-3.627-1.51-4.593-2.775-.985-1.29-1.396-3.18-1.396-5.814 0-1.695.175-3.578.343-5.381l.027-.287.026-.282c.169-1.815.34-3.646.34-5.283 0-3.225-.669-4.976-1.894-5.825-1.14-.792-2.832-.805-4.948-.304-2.093.495-4.45 1.454-6.816 2.418l-.02.008c-2.102.856-4.273 1.74-6.284 2.295-2.005.554-3.94.808-5.533.315-1.52-.47-2.849-1.684-4.072-3.196-1.23-1.518-2.407-3.41-3.596-5.323-1.349-2.168-2.691-4.323-4.122-5.94C67.95 1.475 66.515.5 65.002.5c-1.512 0-2.948.975-4.388 2.602-1.43 1.617-2.773 3.772-4.121 5.938l-.003.004c-1.188 1.908-2.364 3.799-3.593 5.317-1.223 1.513-2.552 2.727-4.072 3.198-1.596.493-3.534.24-5.54-.315-2.019-.557-4.195-1.444-6.297-2.303-2.366-.964-4.723-1.923-6.817-2.418-2.115-.5-3.807-.488-4.947.304-1.222.85-1.894 2.601-1.894 5.825 0 1.63.17 3.448.338 5.258a3441.289 3441.289 0 0 0 .056.61c.168 1.802.342 3.677.342 5.365 0 2.635-.411 4.524-1.396 5.814-.966 1.265-2.667 2.12-4.594 2.776-1.931.657-4.19 1.145-6.374 1.617l-.04.008c-2.551.551-5.092 1.1-7.126 1.888-2.058.796-3.437 1.776-3.882 3.086-.1.3-.151.611-.15.925v.002c0 1.19.674 2.584 1.788 4.137 1.103 1.536 2.572 3.14 4.043 4.746 1.529 1.664 3.107 3.384 4.301 5.065 1.186 1.67 2.054 3.386 2.054 5.04 0 1.656-.869 3.374-2.056 5.047-1.195 1.685-2.775 3.407-4.303 5.072m123.167 8.896-73.01 36.956c-1.188-1.913-2.365-3.805-3.595-5.324-1.223-1.511-2.552-2.724-4.072-3.195-1.593-.493-3.528-.239-5.533.315-2.01.555-4.181 1.439-6.283 2.295l-.02.008c-2.367.964-4.724 1.923-6.817 2.418-2.116.501-3.808.488-4.948-.304-1.225-.85-1.894-2.6-1.894-5.825 0-1.637.171-3.469.34-5.283l.026-.282.026-.283c.169-1.804.344-3.69.344-5.385 0-2.635-.41-4.524-1.396-5.814-.966-1.265-2.666-2.12-4.593-2.776-1.935-.658-4.2-1.147-6.391-1.62l-.026-.005-.008-.002c-2.548-.55-5.085-1.099-7.117-1.884-2.057-.796-3.435-1.776-3.88-3.088a2.872 2.872 0 0 1-.15-.933v-.004c0-1.19.673-2.584 1.787-4.136 1.103-1.536 2.572-3.14 4.043-4.745m123.167 8.896c.002.316-.048.631-.15.933-.446 1.31-1.824 2.291-3.881 3.087-2.035.787-4.575 1.336-7.125 1.887l-.043.009c-2.183.472-4.441.96-6.372 1.616-1.928.656-3.629 1.51-4.595 2.776-.985 1.29-1.396 3.18-1.396 5.814 0 1.692.175 3.569.342 5.371l.028.297.025.267c.169 1.819.339 3.646.339 5.287 0 3.224-.672 4.975-1.894 5.825-1.14.792-2.832.805-4.947.304-2.094-.495-4.451-1.454-6.817-2.418-2.102-.859-4.278-1.746-6.297-2.303-2.006-.554-3.944-.808-5.54-.315m48.323-28.437L81.175 112.44M6.33 75.108l-.368-.339m.368.339-.368-.339m0 0C3.03 77.97 0 81.276 0 83.99l5.967-28.768c3.067 3.34 6.223 6.783 6.223 9.769 0 2.986-3.16 6.44-6.227 9.78Zm75.212 37.672c-1.52.471-2.849 1.685-4.072 3.198-1.229 1.518-2.405 3.409-3.593 5.317l-.003.004m7.668-8.519-7.668 8.519m0 0c-1.348 2.166-2.69 4.321-4.121 5.938m4.121-5.938-4.121 5.938m0 0c-1.44 1.627-2.876 2.602-4.388 2.602m4.388-2.602-4.388 2.602m0 0c-1.513 0-2.948-.974-4.387-2.601m4.387 2.601-4.387-2.601m0 0c-1.43-1.616-2.773-3.771-4.122-5.939l4.122 5.939Z" fill="#E9FFE8" stroke="#383838"/></svg>