<svg width="23" height="23" fill="none" xmlns="http://www.w3.org/2000/svg"><g clip-path="url(#a)" fill="#8AC900"><path d="m.872 5.698 10.098 6.86a.938.938 0 0 0 1.058 0l10.097-6.86c.506-.342.263-1.133-.347-1.133H1.22c-.61 0-.852.789-.347 1.133Zm21.159 1.083-6.147 4.176 6.065 5.86A.62.62 0 0 0 23 16.37V7.294a.621.621 0 0 0-.97-.513ZM1.048 16.816l6.065-5.859L.967 6.781A.619.619 0 0 0 0 7.294v9.076a.618.618 0 0 0 1.048.446Z"/><path d="M20.841 18.435a.62.62 0 0 0 .431-1.066l-6.121-5.913-2.712 1.841a1.67 1.67 0 0 1-1.879 0l-2.713-1.841-6.122 5.913a.62.62 0 0 0 .431 1.066h18.685Z"/></g><defs><clipPath id="a"><path fill="#383838" d="M0 0h23v23H0z"/></clipPath></defs></svg>