<svg width="16" height="16" fill="none" xmlns="http://www.w3.org/2000/svg"><g clip-path="url(#a)"><path fill-rule="evenodd" clip-rule="evenodd" d="M15.279 13.736c-.1.1-.221.228-.35.363-.32.34-.72.762-.97.934-1.32.901-3.084.47-4.332-.05-1.647-.686-3.44-1.95-5.049-3.56-1.611-1.61-2.876-3.404-3.562-5.05C.497 5.126.065 3.36.966 2.042c.171-.251.595-.65.934-.971.136-.128.263-.249.363-.349a.95.95 0 0 1 1.341 0l2.427 2.426a.95.95 0 0 1 0 1.341l-.66.66a1.444 1.444 0 0 0-.256 1.708 9.696 9.696 0 0 0 4.03 4.028 1.443 1.443 0 0 0 1.706-.255l.66-.66a.95.95 0 0 1 1.341 0l2.427 2.427a.95.95 0 0 1 0 1.34Z" fill="#fff"/></g><defs><clipPath id="a"><path fill="#fff" transform="translate(.444 .444)" d="M0 0h15.111v15.111H0z"/></clipPath></defs></svg>